Coordinates
version=1
nRows=32
nColumns=11
inDegrees=yes

Units are S.I. units (second, meters, Newtons, ...)
If the header above contains a line with 'inDegrees', this indicates whether rotational values are in degrees (yes) or radians (no).

endheader
time	pelvis_tilt	pelvis_tx	pelvis_ty	hip_flexion_l	hip_flexion_r	knee_angle_l	knee_angle_r	ankle_angle_l	ankle_angle_r	lumbar_extension
      3.34000000	     -0.89401894	      0.53944621	      0.86637987	     -4.25338907	     34.44013865	    -39.98480280	    -36.55165979	      6.69266265	      1.28549535	    -10.23169823
      3.35000000	     -1.36456193	      0.55145452	      0.86801030	     -3.45925487	     33.94090466	    -40.94365294	    -36.41317326	      3.81802004	      2.16558873	     -9.52932619
      3.36000000	     -1.68222421	      0.56343600	      0.87024023	     -2.86190685	     33.18166925	    -41.69318779	    -36.09620243	      0.84842820	      2.87360750	     -9.02178034
      3.37000000	     -2.16019910	      0.57487060	      0.87236054	     -1.92654268	     32.68568946	    -42.52784480	    -35.88342250	     -2.46236523	      3.58229507	     -8.40772162
      3.38000000	     -2.60245753	      0.58590035	      0.87463342	     -0.89126704	     32.23606305	    -43.43098081	    -35.70401333	     -5.57704233	      4.07963171	     -7.86291365
      3.39000000	     -2.84553963	      0.59667198	      0.87725096	      0.02201452	     31.55978989	    -44.43946405	    -35.45723226	     -8.28125903	      4.62105400	     -7.59386033
      3.40000000	     -3.04508830	      0.60725573	      0.88002865	      1.02851760	     30.81223416	    -45.63908096	    -35.12784148	    -10.85830705	      4.97172037	     -7.34651883
      3.41000000	     -3.17821942	      0.61777356	      0.88273963	      2.10159037	     29.94378486	    -47.14544405	    -34.71962202	    -12.09438376	      5.45178828	     -7.14867995
      3.42000000	     -3.15367878	      0.62799272	      0.88554406	      3.15341493	     28.88914401	    -48.89627417	    -34.22719503	    -12.34982340	      5.77743021	     -7.14045544
      3.43000000	     -3.00111325	      0.63838581	      0.88862915	      4.15289738	     27.59297185	    -50.72839205	    -33.56608448	    -12.27923976	      6.20343620	     -7.22414204
      3.44000000	     -2.92369865	      0.64841480	      0.89158869	      5.35777846	     26.34801259	    -52.52891851	    -32.77689402	    -12.36673732	      6.41153829	     -7.23624444
      3.45000000	     -2.89558584	      0.65830567	      0.89452262	      6.68119124	     25.10032676	    -54.22219997	    -31.89531366	    -12.47767940	      6.67682225	     -7.21826531
      3.46000000	     -2.92514162	      0.66816573	      0.89741583	      8.12788457	     23.91117036	    -55.82310733	    -30.96261696	    -12.69444945	      6.80437367	     -7.14384272
      3.47000000	     -3.02537560	      0.67773958	      0.90015355	      9.73184568	     22.76089489	    -57.38876530	    -29.91598122	    -13.15966525	      6.87855946	     -7.01141095
      3.48000000	     -3.12067069	      0.68708809	      0.90271640	     11.49733234	     21.63303756	    -59.05709664	    -28.88701140	    -13.75263745	      6.84856728	     -6.91110149
      3.49000000	     -3.20607626	      0.69636697	      0.90528601	     13.28863457	     20.47542774	    -60.71626763	    -27.80306675	    -14.19848563	      6.80385358	     -6.82648562
      3.50000000	     -3.05895410	      0.70570291	      0.90791894	     14.92224931	     18.98928271	    -62.38108875	    -26.57891481	    -14.24922512	      6.83438177	     -6.99357004
      3.51000000	     -2.87098402	      0.71496191	      0.91037734	     16.51075943	     17.47555205	    -63.94860432	    -25.36127337	    -13.82745955	      6.74313172	     -7.23078319
      3.52000000	     -2.77314486	      0.72395542	      0.91234988	     18.28373070	     16.17505363	    -65.52244079	    -24.32267339	    -13.18965595	      6.90436978	     -7.38751412
      3.53000000	     -2.53181393	      0.73316845	      0.91425457	     19.85461213	     14.65301966	    -66.91939689	    -23.20330825	    -12.24415760	      6.95911352	     -7.68594671
      3.54000000	     -2.34954457	      0.74211300	      0.91585535	     21.50513187	     13.25370282	    -68.18080448	    -22.15819420	    -11.27463791	      7.02837773	     -7.95421377
      3.55000000	     -1.94599444	      0.75147862	      0.91761066	     22.78907863	     11.47383163	    -69.18472637	    -20.89409941	    -10.23139767	      7.14966972	     -8.43564705
      3.56000000	     -1.97475623	      0.76001404	      0.91840990	     24.66403772	     10.33638880	    -70.14160155	    -19.85374649	     -9.06996928	      7.24010638	     -8.49840365
      3.57000000	     -1.66255214	      0.76915790	      0.91965856	     26.00586982	      8.71456012	    -70.78313335	    -18.65638387	     -7.96573003	      7.41011213	     -8.90607199
      3.58000000	     -1.38010575	      0.77839544	      0.92071290	     27.26716881	      7.16543267	    -71.09072038	    -17.56135618	     -6.85060521	      7.66832295	     -9.25115831
      3.59000000	     -1.02396382	      0.78792611	      0.92171819	     28.33483612	      5.46147770	    -71.13455863	    -16.33969216	     -5.63939980	      7.77005740	     -9.64556168
      3.60000000	     -0.68695716	      0.79725656	      0.92254998	     29.34385522	      3.84955126	    -70.88586541	    -15.23599273	     -4.41307421	      7.93827604	    -10.05367625
      3.61000000	     -0.53185030	      0.80645233	      0.92282031	     30.47988267	      2.51494378	    -70.40079589	    -14.28398938	     -3.05670079	      7.98483662	    -10.25861865
      3.62000000	     -0.29743788	      0.81574562	      0.92309722	     31.38583209	      1.11804667	    -69.56439889	    -13.34027054	     -2.16104311	      8.09586972	    -10.54840816
      3.63000000	      0.01658762	      0.82526684	      0.92327257	     32.08975341	     -0.35334534	    -68.46476376	    -12.47585734	     -0.88209157	      8.34802228	    -10.90343140
      3.64000000	      0.29670566	      0.83462045	      0.92325059	     32.70945667	     -1.76081110	    -67.08836661	    -11.58611564	      0.11450502	      8.34431674	    -11.26642160
      3.65000000	      0.64887579	      0.84429612	      0.92304401	     33.09182682	     -3.26336427	    -65.43356515	    -10.76156406	      1.34145788	      8.66982608	    -11.60152162
